<svg viewBox="0 0 32 32" enable-background="new 0 0 32 32" version="1.1" xml:space="preserve" xmlns="http://www.w3.org/2000/svg" xmlns:xlink="http://www.w3.org/1999/xlink" fill="#000000"><g id="SVGRepo_bgCarrier" stroke-width="0"></g><g id="SVGRepo_tracerCarrier" stroke-linecap="round" stroke-linejoin="round"></g><g id="SVGRepo_iconCarrier"> <g id="Home"></g> <g id="Print"></g> <g id="Mail"></g> <g id="Camera"></g> <g id="Video"></g> <g id="Film"></g> <g id="Message"></g> <g id="Telephone"> <path d="M30,22.3l-2.5-2.5c-1.3-1.3-3.5-1.3-4.8,0l-0.8,0.8c-0.5,0.5-1.4,0.5-2,0l-4.2-4.2l-4.2-4.2 c-0.3-0.3-0.4-0.6-0.4-1s0.1-0.7,0.4-1l0.9-0.8c1.3-1.3,1.3-3.5,0-4.8L9.7,2C8.5,0.7,6.2,0.7,4.9,2L4.1,2.8c-2,2-3.1,4.6-3.1,7.5 s1.1,5.5,3.1,7.5l5.1,5.1l5.1,5.1c2,2,4.7,3.1,7.5,3.1s5.5-1.1,7.5-3.1l0.9-0.8c0.6-0.6,1-1.5,1-2.4C31,23.8,30.7,22.9,30,22.3z" fill="#4DAF50"></path> <g> <path d="M16,5c-0.5,0-1,0.5-1,1s0.5,1,1,1c2.5,0,4.7,1,6.4,2.6C24,11.3,25,13.5,25,16c0,0.5,0.5,1,1,1s1-0.5,1-1 c0-3-1.2-5.8-3.2-7.8C21.8,6.2,19,5,16,5z" fill="#FE9803"></path> <path d="M27.8,4.2C25.8,2.2,23,1,20,1c-0.5,0-1,0.5-1,1s0.5,1,1,1c2.5,0,4.7,1,6.4,2.6C28,7.3,29,9.5,29,12 c0,0.5,0.5,1,1,1s1-0.5,1-1C31,9,29.8,6.2,27.8,4.2z" fill="#FE9803"></path> </g> </g> <g id="User"></g> <g id="File"></g> <g id="Folder"></g> <g id="Map"></g> <g id="Download"></g> <g id="Upload"></g> <g id="Video_Recorder"></g> <g id="Schedule"></g> <g id="Cart"></g> <g id="Setting"></g> <g id="Search"></g> <g id="Pencils"></g> <g id="Group"></g> <g id="Record"></g> <g id="Headphone"></g> <g id="Music_Player"></g> <g id="Sound_On"></g> <g id="Sound_Off"></g> <g id="Lock"></g> <g id="Lock_open"></g> <g id="Love"></g> <g id="Favorite"></g> <g id="Film_1_"></g> <g id="Music"></g> <g id="Puzzle"></g> <g id="Turn_Off"></g> <g id="Book"></g> <g id="Save"></g> <g id="Reload"></g> <g id="Trash"></g> <g id="Tag"></g> <g id="Link"></g> <g id="Like"></g> <g id="Bad"></g> <g id="Gallery"></g> <g id="Add"></g> <g id="Close"></g> <g id="Forward"></g> <g id="Back"></g> <g id="Buy"></g> <g id="Mac"></g> <g id="Laptop"></g> </g></svg>